#!OML:ASF I:\Actors\actors\Patient Classification 2\Patient 1\Session 1\actor1.ASF
:FULLY-SPECIFIED
:DEGREES
520
root -0.669511 18.7341 5.36146 3.13705 -7.65992 -1.93793
lowerback 15.8248 -0.611094 -0.604096
upperback 3.16166 -0.879847 0.577851
thorax -5.48382 -0.423417 1.13135
lowerneck -1.22234 -1.08346 0.437277
upperneck -4.4739 -1.36847 2.46536
head -1.1538 -0.725008 0.69368
rclavicle -3.88624e-014 7.55382e-015
rhumerus 11.3073 6.237 -28.3171
rradius 140.473
rwrist -46.8478
rhand 9.04777 -48.0978
rfingers 7.12502
rthumb 34.2226 -74.8318
lclavicle -3.88624e-014 7.55382e-015
lhumerus -45.2323 -0.773121 84.7862
lradius 50.2769
lwrist -0.128189
lhand -8.18447 -26.8093
lfingers 7.12502
lthumb 17.7313 2.4023
rfemur 0 0 0
rtibia 0
rfoot 0 0
rtoes 0
lfemur -7.47322 -0.441882 -12.3152
ltibia 23.0935
lfoot -22.3351 14.9095
ltoes -55.0547
521
root -0.670231 18.7335 5.36567 3.10159 -7.63692 -1.92756
lowerback 15.8717 -0.615379 -0.604612
upperback 3.15177 -0.886446 0.565381
thorax -5.51986 -0.42639 1.12065
lowerneck -1.18025 -1.07212 0.396962
upperneck -4.6331 -1.34929 2.47316
head -1.21082 -0.716818 0.704413
rclavicle -1.6201e-014 -3.97569e-016
rhumerus 11.3733 6.08089 -28.3199
rradius 140.447
rwrist -46.779
rhand 9.05774 -47.9743
rfingers 7.12502
rthumb 34.2321 -74.7062
lclavicle -1.6201e-014 -3.97569e-016
lhumerus -45.2298 -0.793773 84.7733
lradius 50.1648
lwrist 0.176246
lhand -8.2358 -27.2734
lfingers 7.12502
lthumb 17.6819 1.94264
rfemur 0 0 0
rtibia 0
rfoot 0 0
rtoes 0
lfemur -7.4175 -0.421893 -12.3247
ltibia 23.0681
lfoot -22.3197 14.9053
ltoes -55.1217
522
root -0.670563 18.7338 5.36965 3.06358 -7.6328 -1.88232
lowerback 15.9281 -0.610426 -0.651745
upperback 3.13428 -0.88903 0.547047
thorax -5.56859 -0.426577 1.12958
lowerneck -1.17485 -1.05743 0.361108
upperneck -4.7517 -1.3266 2.49031
head -1.24901 -0.706388 0.716622
rclavicle -3.36443e-014 -9.93923e-016
rhumerus 11.4262 5.94237 -28.3215
rradius 140.436
rwrist -46.7848
rhand 9.22729 -47.9774
rfingers 7.12502
rthumb 34.3931 -74.673
lclavicle -3.36443e-014 -9.93923e-016
lhumerus -45.2447 -0.759084 84.731
lradius 50.3027
lwrist -0.223719
lhand -8.25819 -27.3242
lfingers 7.12502
lthumb 17.6604 1.89372
rfemur 0 0 0
rtibia 0
rfoot 0 0
rtoes 0
lfemur -7.36222 -0.393449 -12.3783
ltibia 23.0587
lfoot -22.3217 14.8997
ltoes -55.1073
523
root -0.670653 18.735 5.37314 3.08125 -7.62381 -1.86112
lowerback 15.9191 -0.605868 -0.687991
upperback 3.1182 -0.889414 0.539412
thorax -5.58035 -0.426051 1.14215
lowerneck -1.21113 -1.05415 0.347835
upperneck -4.85199 -1.32004 2.50796
head -1.27432 -0.703975 0.724813
rclavicle 1.78906e-015 -2.76311e-014
rhumerus 11.495 5.78651 -28.2949
rradius 140.426
rwrist -46.8712
rhand 9.35543 -48.0988
rfingers 7.12502
rthumb 34.5147 -74.7668
lclavicle 1.78906e-015 -2.76311e-014
lhumerus -45.2296 -0.701419 84.6708
lradius 50.5242
lwrist -1.02579
lhand -8.3463 -27.3593
lfingers 7.12502
lthumb 17.5756 1.86631
rfemur 0 0 0
rtibia 0
rfoot 0 0
rtoes 0
lfemur -7.37218 -0.395253 -12.406
ltibia 23.0635
lfoot -22.3203 14.8956
ltoes -55.0882
524
root -0.671493 18.7358 5.37605 3.145 -7.61525 -1.89959
lowerback 15.8628 -0.594977 -0.665696
upperback 3.11059 -0.870675 0.546042
thorax -5.5585 -0.417313 1.13192
lowerneck -1.12422 -1.07195 0.49619
upperneck -5.15537 -1.34261 2.35517
head -1.38605 -0.719392 0.656171
rclavicle 6.06293e-015 3.57812e-015
rhumerus 11.5269 5.60155 -28.2518
rradius 140.43
rwrist -46.9137
rhand 9.40965 -48.1895
rfingers 7.12502
rthumb 34.5662 -74.8458
lclavicle 6.06293e-015 3.57812e-015
lhumerus -45.2052 -0.718309 84.6377
lradius 50.6405
lwrist -1.4776
lhand -8.39579 -27.4039
lfingers 7.12502
lthumb 17.528 1.82596
rfemur 0 0 0
rtibia 0
rfoot 0 0
rtoes 0
lfemur -7.43712 -0.377805 -12.3602
ltibia 23.0751
lfoot -22.282 14.8878
ltoes -55.1477
525
root -0.672738 18.7359 5.37829 3.20588 -7.62091 -1.9657
lowerback 15.8153 -0.582595 -0.626049
upperback 3.10827 -0.846095 0.570703
thorax -5.53594 -0.405931 1.12985
lowerneck -0.933706 -1.09181 0.763331
upperneck -5.60472 -1.37062 2.04288
head -1.56437 -0.739129 0.520271
rclavicle -1.28713e-014 1.88845e-014
rhumerus 11.5116 5.46709 -28.2171
rradius 140.47
rwrist -46.9101
rhand 9.19705 -48.1208
rfingers 7.12502
rthumb 34.3644 -74.8229
lclavicle -1.28713e-014 1.88845e-014
lhumerus -45.1994 -0.726873 84.6368
lradius 50.6909
lwrist -1.54464
lhand -8.33798 -27.4359
lfingers 7.12502
lthumb 17.5836 1.78896
rfemur 0 0 0
rtibia 0
rfoot 0 0
rtoes 0
lfemur -7.49685 -0.362079 -12.2802
ltibia 23.0881
lfoot -22.2823 14.8626
ltoes -55.1554
526
root -0.673622 18.7361 5.38077 3.24127 -7.61231 -2.03197
lowerback 15.812 -0.588313 -0.59631
upperback 3.09604 -0.846198 0.609886
thorax -5.547 -0.406086 1.15456
lowerneck -0.854066 -1.07841 0.848391
upperneck -5.86157 -1.35209 1.9251
head -1.66156 -0.73253 0.471919
rclavicle -2.33572e-014 1.88845e-014
rhumerus 11.5633 5.37697 -28.1494
rradius 140.491
rwrist -46.9455
rhand 8.96261 -48.1381
rfingers 7.12502
rthumb 34.1418 -74.8902
lclavicle -2.33572e-014 1.88845e-014
lhumerus -45.1927 -0.633909 84.6365
lradius 50.6981
lwrist -1.63261
lhand -8.24266 -27.3833
lfingers 7.12502
lthumb 17.6753 1.83331
rfemur 0 0 0
rtibia 0
rfoot 0 0
rtoes 0
lfemur -7.51708 -0.406449 -12.2037
ltibia 23.0899
lfoot -22.3269 14.8317
ltoes -55.0316
527
root -0.673909 18.7369 5.38379 3.2608 -7.59656 -2.03951
lowerback 15.8295 -0.599956 -0.608697
upperback 3.07907 -0.862939 0.619223
thorax -5.57381 -0.413734 1.1753
lowerneck -0.852658 -1.04907 0.810495
upperneck -5.97978 -1.30767 1.99809
head -1.69941 -0.712135 0.501354
rclavicle 1.61016e-014 -1.90833e-014
rhumerus 11.668 5.34152 -28.1099
rradius 140.487
rwrist -46.9245
rhand 8.89907 -48.1802
rfingers 7.12502
rthumb 34.0814 -74.9458
lclavicle 1.61016e-014 -1.90833e-014
lhumerus -45.1721 -0.555721 84.6167
lradius 50.6497
lwrist -1.72049
lhand -8.20958 -27.3249
lfingers 7.12502
lthumb 17.7072 1.88885
rfemur 0 0 0
rtibia 0
rfoot 0 0
rtoes 0
lfemur -7.52019 -0.427326 -12.1965
ltibia 23.0763
lfoot -22.3361 14.8306
ltoes -54.9468
528
root -0.674239 18.7372 5.38673 3.27724 -7.60352 -1.98139
lowerback 15.8312 -0.593684 -0.674796
upperback 3.07629 -0.867252 0.592763
thorax -5.57697 -0.414894 1.18569
lowerneck -0.860116 -1.04844 0.782844
upperneck -6.10607 -1.30129 2.07606
head -1.73819 -0.711155 0.531135
rclavicle -1.98785e-015 -8.34896e-015
rhumerus 11.6941 5.37104 -28.1505
rradius 140.518
rwrist -46.7637
rhand 8.88991 -48.0831
rfingers 7.12502
rthumb 34.0727 -74.8507
lclavicle -1.98785e-015 -8.34896e-015
lhumerus -45.1341 -0.566983 84.5979
lradius 50.6066
lwrist -1.68716
lhand -8.2241 -27.3527
lfingers 7.12502
lthumb 17.6932 1.86232
rfemur 0 0 0
rtibia 0
rfoot 0 0
rtoes 0
lfemur -7.5303 -0.39186 -12.2629
ltibia 23.0561
lfoot -22.3292 14.8573
ltoes -55.0027
529
root -0.674505 18.7369 5.38908 3.28431 -7.6195 -1.95138
lowerback 15.8236 -0.584188 -0.724067
upperback 3.09552 -0.863313 0.586665
thorax -5.55187 -0.412517 1.20603
lowerneck -0.883796 -1.04106 0.723391
upperneck -6.19952 -1.28805 2.12936
head -1.76363 -0.705156 0.558131
rclavicle 7.45443e-015 -6.16232e-015
rhumerus 11.7051 5.38301 -28.1551
rradius 140.547
rwrist -46.5895
rhand 8.89035 -47.9714
rfingers 7.12502
rthumb 34.0731 -74.7389
lclavicle 7.45443e-015 -6.16232e-015
lhumerus -45.0807 -0.560541 84.607
lradius 50.5758
lwrist -1.60434
lhand -8.21231 -27.4372
lfingers 7.12502
lthumb 17.7045 1.77675
rfemur 0 0 0
rtibia 0
rfoot 0 0
rtoes 0
lfemur -7.52734 -0.344365 -12.2962
ltibia 23.038
lfoot -22.3052 14.8741
ltoes -55.1375
530
root -0.674127 18.7365 5.39092 3.29144 -7.62306 -1.96316
lowerback 15.8292 -0.594167 -0.725989
upperback 3.11164 -0.876428 0.593362
thorax -5.53733 -0.41907 1.21677
lowerneck -0.846133 -1.00494 0.747188
upperneck -6.30893 -1.24001 2.07026
head -1.80624 -0.681848 0.536265
rclavicle -1.77415e-014 -2.10712e-014
rhumerus 11.7771 5.35886 -28.1383
rradius 140.542
rwrist -46.5572
rhand 8.88155 -47.9494
rfingers 7.12502
rthumb 34.0648 -74.7188
lclavicle -1.77415e-014 -2.10712e-014
lhumerus -45.0569 -0.518135 84.6086
lradius 50.5661
lwrist -1.58246
lhand -8.27056 -27.4762
lfingers 7.12502
lthumb 17.6485 1.74285
rfemur 0 0 0
rtibia 0
rfoot 0 0
rtoes 0
lfemur -7.5185 -0.348184 -12.2861
ltibia 23.0228
lfoot -22.2699 14.9066
ltoes -55.2202
531
root -0.673836 18.7363 5.39188 3.30552 -7.61121 -1.96367
lowerback 15.8705 -0.611696 -0.725145
upperback 3.10137 -0.899948 0.586298
thorax -5.57019 -0.430308 1.21436
lowerneck -0.735732 -0.95489 0.862932
upperneck -6.42673 -1.17535 1.92998
head -1.86535 -0.651047 0.473891
rclavicle -1.86361e-014 -3.57812e-015
rhumerus 11.8128 5.33507 -28.1596
rradius 140.557
rwrist -46.6952
rhand 8.96266 -48.0746
rfingers 7.12502
rthumb 34.1418 -74.8268
lclavicle -1.86361e-014 -3.57812e-015
lhumerus -45.1109 -0.532407 84.5981
lradius 50.611
lwrist -1.54439
lhand -8.36811 -27.4175
lfingers 7.12502
lthumb 17.5546 1.80996
rfemur 0 0 0
rtibia 0
rfoot 0 0
rtoes 0
lfemur -7.53107 -0.375547 -12.2889
ltibia 23.015
lfoot -22.2485 14.9422
ltoes -55.1925
